<?xml version="1.0" encoding="UTF-8"?>
<svg version="1.1" xmlns="http://www.w3.org/2000/svg" width="160" height="49">
<path d="M0 0 C52.8 0 105.6 0 160 0 C160 16.17 160 32.34 160 49 C107.2 49 54.4 49 0 49 C0 32.83 0 16.66 0 0 Z " fill="#152946" transform="translate(0,0)"/>
<path d="M0 0 C3.63 0 7.26 0 11 0 C10.01 0.495 10.01 0.495 9 1 C9 6.61 9 12.22 9 18 C12.465 17.505 12.465 17.505 16 17 C16.33 15.35 16.66 13.7 17 12 C17.66 12 18.32 12 19 12 C19 13.98 19 15.96 19 18 C19.66 18 20.32 18 21 18 C20.67 14.04 20.34 10.08 20 6 C21.98 6 23.96 6 26 6 C26 9.96 26 13.92 26 18 C26.66 18.33 27.32 18.66 28 19 C18.76 19 9.52 19 0 19 C0.99 18.67 1.98 18.34 3 18 C3 12.39 3 6.78 3 1 C2.01 0.67 1.02 0.34 0 0 Z " fill="#E6E8EB" transform="translate(95,13)"/>
<path d="M0 0 C5 0 10 0 15 0 C16.2684375 -0.061875 16.2684375 -0.061875 17.5625 -0.125 C20 0 20 0 22 2 C22.4140625 4.6015625 22.4140625 4.6015625 22.625 7.625 C22.69976562 8.62789062 22.77453125 9.63078125 22.8515625 10.6640625 C22.92503906 11.82035156 22.92503906 11.82035156 23 13 C20.69 13 18.38 13 16 13 C16.33 9.37 16.66 5.74 17 2 C16.01 2.495 16.01 2.495 15 3 C15 6.3 15 9.6 15 13 C12.69 13 10.38 13 8 13 C8.33 9.37 8.66 5.74 9 2 C8.01 2.495 8.01 2.495 7 3 C7 6.3 7 9.6 7 13 C4.69 13 2.38 13 0 13 C0 8.71 0 4.42 0 0 Z " fill="#44C979" transform="translate(58,19)"/>
<path d="M0 0 C0 1.65 0 3.3 0 5 C2.97 5 5.94 5 9 5 C9.06058594 5.77085938 9.12117188 6.54171875 9.18359375 7.3359375 C9.26738281 8.33882812 9.35117187 9.34171875 9.4375 10.375 C9.51871094 11.37273438 9.59992187 12.37046875 9.68359375 13.3984375 C9.84965626 15.97927613 9.84965626 15.97927613 11 18 C8.69 18 6.38 18 4 18 C4.33 14.04 4.66 10.08 5 6 C3.35 6 1.7 6 0 6 C0.11362262 7.4800841 0.24122908 8.95910074 0.375 10.4375 C0.44460937 11.26121094 0.51421875 12.08492187 0.5859375 12.93359375 C0.72257812 13.61550781 0.85921875 14.29742187 1 15 C1.66 15.33 2.32 15.66 3 16 C2.34 16.66 1.68 17.32 1 18 C-3.55555556 17.44444444 -3.55555556 17.44444444 -5 16 C-5.77747594 12.32241538 -6.19242082 8.75755098 -6 5 C-2.2745098 0 -2.2745098 0 0 0 Z " fill="#43C778" transform="translate(46,14)"/>
<path d="M0 0 C2.4375 1.5625 2.4375 1.5625 4 4 C3.9375 7.625 3.9375 7.625 3 11 C-0.46923881 13.31282587 -1.92205575 13.42478586 -6 13 C-7.875 11.9375 -7.875 11.9375 -9 10 C-9.63316583 4.09045226 -9.63316583 4.09045226 -7.875 1.0625 C-5.06487736 -0.52990283 -3.17235276 -0.45319325 0 0 Z " fill="#42C377" transform="translate(91,19)"/>
<path d="M0 0 C3.3 0 6.6 0 10 0 C9.01 0.495 9.01 0.495 8 1 C8.33 6.28 8.66 11.56 9 17 C10.98 17 12.96 17 15 17 C14.67 17.66 14.34 18.32 14 19 C6.70072993 19.486618 6.70072993 19.486618 3.75 17.4375 C1.35102349 14.09606843 1.59936892 11.81703913 1.75 7.75 C1.78609375 6.48671875 1.8221875 5.2234375 1.859375 3.921875 C1.90578125 2.95765625 1.9521875 1.9934375 2 1 C1.34 0.67 0.68 0.34 0 0 Z " fill="#42C377" transform="translate(11,13)"/>
<path d="M0 0 C2 2 2 2 2 6 C-0.31 6 -2.62 6 -5 6 C-4.34 7.32 -3.68 8.64 -3 10 C-1.02 9.67 0.96 9.34 3 9 C1.875 11 1.875 11 0 13 C-3.1506804 13.45947423 -5.07837528 13.52225401 -7.875 11.9375 C-9.64273274 8.8930714 -9.36823916 6.4368988 -9 3 C-6.8388936 -0.72190547 -4.01418597 -0.42704106 0 0 Z " fill="#EBECEF" transform="translate(147,19)"/>
<path d="M0 0 C1.98 0 3.96 0 6 0 C6 3.96 6 7.92 6 12 C6.66 12.33 7.32 12.66 8 13 C3.71 13 -0.58 13 -5 13 C-5.33 12.34 -5.66 11.68 -6 11 C-5.34 11 -4.68 11 -4 11 C-3.67 9.35 -3.34 7.7 -3 6 C-2.34 6 -1.68 6 -1 6 C-1 7.98 -1 9.96 -1 12 C-0.34 12 0.32 12 1 12 C0.67 8.04 0.34 4.08 0 0 Z " fill="#DFE1E5" transform="translate(115,19)"/>
<path d="M0 0 C1.98 0 3.96 0 6 0 C6.33 6.27 6.66 12.54 7 19 C4.69 19 2.38 19 0 19 C0.33 18.34 0.66 17.68 1 17 C1.09792892 14.4884113 1.13907983 12.01090234 1.125 9.5 C1.12886719 8.81035156 1.13273437 8.12070312 1.13671875 7.41015625 C1.19040866 3.57833786 1.19040866 3.57833786 0 0 Z " fill="#47D47C" transform="translate(32,13)"/>
<path d="M0 0 C2.64 0 5.28 0 8 0 C8.33 1.98 8.66 3.96 9 6 C9.33 4.02 9.66 2.04 10 0 C11.65 0 13.3 0 15 0 C13.02 4.29 11.04 8.58 9 13 C8.01 13 7.02 13 6 13 C5.73445313 12.31292969 5.46890625 11.62585937 5.1953125 10.91796875 C4.84210938 10.01691406 4.48890625 9.11585937 4.125 8.1875 C3.77695313 7.29417969 3.42890625 6.40085937 3.0703125 5.48046875 C2.01167845 2.82288409 2.01167845 2.82288409 0 0 Z " fill="#E6E8EB" transform="translate(122,19)"/>
<path d="M0 0 C1.65 0 3.3 0 5 0 C5.06058594 0.77085938 5.12117188 1.54171875 5.18359375 2.3359375 C5.26738281 3.33882812 5.35117187 4.34171875 5.4375 5.375 C5.51871094 6.37273438 5.59992187 7.37046875 5.68359375 8.3984375 C5.84965626 10.97927613 5.84965626 10.97927613 7 13 C4.69 13 2.38 13 0 13 C0 8.71 0 4.42 0 0 Z " fill="#47D67D" transform="translate(50,19)"/>
<path d="M0 0 C1.32 0.33 2.64 0.66 4 1 C4 4.63 4 8.26 4 12 C3.01 12 2.02 12 1 12 C0 11 0 11 -0.09765625 8.49609375 C-0.08605469 7.48675781 -0.07445312 6.47742188 -0.0625 5.4375 C-0.05347656 4.42558594 -0.04445312 3.41367187 -0.03515625 2.37109375 C-0.02355469 1.58863281 -0.01195312 0.80617188 0 0 Z " fill="#1B3E4C" transform="translate(55,19)"/>
<path d="M0 0 C0.99 0.33 1.98 0.66 3 1 C3 3.97 3 6.94 3 10 C1.68 10 0.36 10 -1 10 C-1.02689216 8.52093108 -1.04634621 7.04172517 -1.0625 5.5625 C-1.07410156 4.73878906 -1.08570312 3.91507813 -1.09765625 3.06640625 C-1 1 -1 1 0 0 Z " fill="#193A4B" transform="translate(87,20)"/>
<path d="M0 0 C0.99 0.33 1.98 0.66 3 1 C2.67 4.3 2.34 7.6 2 11 C0.68 10.34 -0.64 9.68 -2 9 C-2.125 5.625 -2.125 5.625 -2 2 C-1.34 1.34 -0.68 0.68 0 0 Z " fill="#46D17B" transform="translate(84,20)"/>
<path d="M0 0 C-0.33 1.65 -0.66 3.3 -1 5 C-2.66611905 5.042721 -4.33382885 5.04063832 -6 5 C-6.33 4.67 -6.66 4.34 -7 4 C-7.33 5.98 -7.66 7.96 -8 10 C-8.33 10 -8.66 10 -9 10 C-9.36103152 3.6217765 -9.36103152 3.6217765 -7.875 1.0625 C-5.214973 -0.44484863 -2.99793795 -0.19986253 0 0 Z " fill="#ACB2BD" transform="translate(147,19)"/>
<path d="M0 0 C0.99 0.33 1.98 0.66 3 1 C3 2.32 3 3.64 3 5 C0.69 5 -1.62 5 -4 5 C-2.68 4.67 -1.36 4.34 0 4 C0 2.68 0 1.36 0 0 Z " fill="#F4F4F6" transform="translate(146,20)"/>
<path d="M0 0 C1.32 0 2.64 0 4 0 C4 1.32 4 2.64 4 4 C2.35 3.67 0.7 3.34 -1 3 C-0.67 2.01 -0.34 1.02 0 0 Z " fill="#DDE0E4" transform="translate(117,13)"/>
</svg>
